<?xml version="1.0" encoding="UTF-8" standalone="no"?>
<!-- Created with Inkscape (http://www.inkscape.org/) -->
<svg xmlns:dc="http://purl.org/dc/elements/1.1/" xmlns:cc="http://creativecommons.org/ns#" xmlns:rdf="http://www.w3.org/1999/02/22-rdf-syntax-ns#" xmlns:svg="http://www.w3.org/2000/svg" xmlns="http://www.w3.org/2000/svg" xmlns:sodipodi="http://sodipodi.sourceforge.net/DTD/sodipodi-0.dtd" xmlns:inkscape="http://www.inkscape.org/namespaces/inkscape" id="svg2985" version="1.1" inkscape:version="0.48.0 r9654" width="287.0075" height="106.3" xml:space="preserve" sodipodi:docname="logo-horiz-gray-cmyk-30mm.ai"><metadata id="metadata2991"><rdf:RDF><cc:Work rdf:about=""><dc:format>image/svg+xml</dc:format><dc:type rdf:resource="http://purl.org/dc/dcmitype/StillImage"/><dc:title/></cc:Work></rdf:RDF></metadata><defs id="defs2989"><clipPath clipPathUnits="userSpaceOnUse" id="clipPath2999"><path d="m 0,85.04 229.606,0 0,-85.04 L 0,0 0,85.04 z" id="path3001"/></clipPath></defs><sodipodi:namedview pagecolor="#ffffff" bordercolor="#666666" borderopacity="1" objecttolerance="10" gridtolerance="10" guidetolerance="10" inkscape:pageopacity="0" inkscape:pageshadow="2" inkscape:window-width="640" inkscape:window-height="480" id="namedview2987" showgrid="false" inkscape:zoom="1.6724301" inkscape:cx="143.50375" inkscape:cy="53.150002" inkscape:window-x="0" inkscape:window-y="0" inkscape:window-maximized="0" inkscape:current-layer="g2993"/><g id="g2993" inkscape:groupmode="layer" inkscape:label="logo-horiz-gray-cmyk-30mm" transform="matrix(1.25,0,0,-1.25,0,106.3)"><g id="g2995"><g id="g2997" clip-path="url(#clipPath2999)"><g id="g3003" transform="translate(49.1304,35.6455)"><path d="m 0,0 c -5.716,-5.716 -14.984,-5.715 -20.696,-0.003 -5.715,5.714 -5.715,14.982 0,20.697 5.713,5.713 14.98,5.712 20.693,-10e-4 C 5.71,14.979 5.711,5.713 0,0 m 31.453,-9.799 c -2.48,2.473 -5.599,3.908 -8.83,4.317 -2.654,0.331 -5.177,1.625 -7.21,3.642 -2.811,2.804 -4.064,6.549 -3.781,10.209 0.218,2.779 0.148,5.808 -0.081,8.35 -0.263,2.943 0.986,5.947 3.425,8.008 1.348,1.129 2.912,1.834 4.535,2.127 2.505,0.256 4.942,1.339 6.861,3.247 4.435,4.414 4.435,11.571 0,15.983 -4.432,4.413 -11.624,4.413 -16.053,0 C 8.465,44.243 7.389,41.925 7.083,39.525 6.835,37.556 5.864,35.681 4.351,34.17 2.25,32.083 -0.576,30.987 -3.302,31.362 c -5.103,0.701 -5.859,0.645 -11.3,0.123 -2.985,-0.286 -3.96,0.863 -4.612,2.233 -0.356,0.755 -0.488,1.558 -0.426,2.337 0.19,1.178 -0.007,2.427 -0.654,3.54 -1.494,2.572 -4.799,3.452 -7.381,1.963 -2.585,-1.484 -3.47,-4.777 -1.974,-7.345 0.62,-1.077 1.558,-1.853 2.628,-2.289 0.879,-0.355 1.628,-1.03 2.138,-1.909 0.702,-1.213 1.308,-2.664 -0.516,-4.619 -4.713,-5.049 -6.934,-11.502 -6.19,-17.846 0.28,-2.982 -2.013,-4.074 -4.048,-4.843 -1.171,-0.439 -2.385,-0.541 -3.541,-0.356 -1.736,0.418 -3.625,0.27 -5.363,-0.554 -4.016,-1.91 -5.719,-6.697 -3.8,-10.693 1.917,-3.997 6.728,-5.692 10.741,-3.784 1.679,0.795 2.947,2.092 3.724,3.626 0.635,1.257 1.729,2.284 3.104,2.937 1.901,0.902 5.077,1.063 6.666,-0.26 4.574,-3.876 10.376,-5.569 16.023,-5.064 3.962,0.353 8.007,-1.314 10.778,-4.57 1.525,-1.797 2.473,-3.882 2.867,-6.048 0.341,-3.338 1.802,-6.589 4.371,-9.152 5.945,-5.912 15.579,-5.912 21.52,0 5.942,5.915 5.942,15.505 0,21.412" style="fill:#f6a602;fill-opacity:1;fill-rule:nonzero;stroke:none" id="path3005"/></g><g id="g3007" transform="translate(93.9751,57.0635)"><path d="m 0,0 -15.094,0 c -1.799,0 -3.349,-0.652 -4.647,-1.951 -1.301,-1.303 -1.95,-2.873 -1.95,-4.704 l 0,-8.826 c 0,-1.835 0.649,-3.406 1.95,-4.707 1.298,-1.3 2.848,-1.95 4.647,-1.95 l 12.276,0 0,3.111 -9.249,0 c -0.8,0 -1.682,0.276 -2.23,0.827 -0.548,0.55 -0.823,1.227 -0.823,2.031 l 0,10.201 c 0,0.799 0.275,1.477 0.823,2.029 0.548,0.551 1.22,0.827 2.017,0.827 l 9.514,0 c 0.765,0 1.421,-0.276 1.969,-0.827 0.547,-0.552 0.82,-1.23 0.82,-2.029 l 0,-16.17 6.575,0 0,6.94 0,8.543 c 0,1.831 -0.643,3.401 -1.925,4.704 C 3.392,-0.652 1.834,0 0,0" style="fill:#505c66;fill-opacity:1;fill-rule:nonzero;stroke:none" id="path3009"/></g><g id="g3011" transform="translate(158.0068,57.0635)"><path d="m 0,0 -15.094,0 c -1.799,0 -3.348,-0.652 -4.648,-1.951 -1.3,-1.303 -1.949,-2.873 -1.949,-4.704 l 0,-8.826 c 0,-1.835 0.649,-3.406 1.949,-4.707 1.3,-1.3 2.849,-1.95 4.648,-1.95 l 12.277,0 0,3.111 -9.462,0 c -0.799,0 -1.47,0.276 -2.018,0.827 -0.549,0.55 -0.82,1.227 -0.82,2.031 l 0,10.201 c 0,0.799 0.271,1.477 0.82,2.029 0.548,0.551 1.219,0.827 2.018,0.827 l 9.515,0 c 0.764,0 1.419,-0.276 1.967,-0.827 0.545,-0.552 0.82,-1.23 0.82,-2.029 l 0,-16.17 6.575,0 0,6.94 0,8.543 c 0,1.831 -0.644,3.401 -1.925,4.704 C 3.39,-0.652 1.833,0 0,0" style="fill:#505c66;fill-opacity:1;fill-rule:nonzero;stroke:none" id="path3013"/></g><g id="g3015" transform="translate(218.5723,41.4307)"><path d="M 0,0 -2.003,0 C -2.642,0 -3.178,-0.224 -3.611,-0.672 -4.045,-1.124 -4.262,-1.66 -4.262,-2.289 l 0,-1.924 c 0,-0.63 0.217,-1.172 0.651,-1.618 0.433,-0.449 0.969,-0.67 1.608,-0.67 l 2.003,0 c 0.633,0 1.177,0.221 1.626,0.67 0.454,0.446 0.681,0.988 0.681,1.618 l 0,1.924 c 0,0.629 -0.227,1.165 -0.681,1.617 C 1.177,-0.224 0.633,0 0,0" style="fill:#505c66;fill-opacity:1;fill-rule:nonzero;stroke:none" id="path3017"/></g><g id="g3019" transform="translate(218.5723,64.4443)"><path d="M 0,0 -2.097,0 C -2.733,0 -3.27,-0.225 -3.703,-0.673 -4.138,-1.124 -4.262,-1.662 -4.262,-2.292 l 0,-16.437 c 0,-0.632 0.217,-1.169 0.651,-1.619 0.433,-0.448 0.969,-0.673 1.608,-0.673 l 2.003,0 c 0.633,0 1.177,0.225 1.626,0.673 0.454,0.45 0.681,0.987 0.681,1.619 l 0,16.437 c 0,0.63 -0.228,1.168 -0.681,1.619 C 1.177,-0.225 0.635,0 0,0" style="fill:#505c66;fill-opacity:1;fill-rule:nonzero;stroke:none" id="path3021"/></g><g id="g3023" transform="translate(129.9473,57.0635)"><path d="m 0,0 -10.16,-14.522 -1.673,-2.397 c -1.261,-1.985 -2.618,-2.978 -4.072,-2.978 -0.776,0 -1.43,0.28 -1.963,0.843 -0.535,0.563 -0.799,1.224 -0.799,1.988 l 0,10.415 -0.002,0 0,4.36 c 0,0.631 -0.226,1.17 -0.677,1.618 C -19.797,-0.224 -20.339,0 -20.975,0 l -2.005,0 c -0.636,0 -1.171,-0.224 -1.604,-0.673 -0.436,-0.448 -0.652,-0.987 -0.652,-1.618 l 0,-8.786 0,-0.003 0,-4.448 c 0,-1.826 0.648,-3.381 1.938,-4.671 1.292,-1.294 2.832,-1.939 4.619,-1.939 l 3.427,0 c 2.449,0 4.106,0.151 4.967,0.454 1.754,0.608 3.443,2.127 5.066,4.559 L 6.652,0 0,0 z" style="fill:#505c66;fill-opacity:1;fill-rule:nonzero;stroke:none" id="path3025"/></g><g id="g3027" transform="translate(208.293,38.0361)"><path d="m 0,0 c -0.8,0 -1.471,0.276 -2.019,0.827 -0.55,0.55 -0.82,1.228 -0.82,2.031 L -2.84,13.083 c 0,0.76 0.194,1.421 0.742,1.988 0.553,0.564 1.211,0.853 1.982,0.853 l 2.764,0 0,3.103 -5.571,0 c -2.553,0 -4.397,-1.532 -5.248,-2.412 0.097,0.187 0.208,0.382 0.343,0.584 0,0 1.881,3.056 4.989,3.448 l 0,1.957 -0.006,0 0,1.512 c 0,0.63 -0.225,1.169 -0.677,1.619 -0.451,0.448 -0.996,0.673 -1.628,0.673 l -2.098,0 c -0.639,0 -1.172,-0.225 -1.606,-0.673 -0.436,-0.45 -0.559,-0.989 -0.559,-1.619 l 0,-21.153 0.027,0 c 0.124,-1.586 0.762,-2.962 1.921,-4.124 1.301,-1.3 2.851,-1.949 4.65,-1.949 l 6.172,0 0,3.11 L 0,0 z" style="fill:#505c66;fill-opacity:1;fill-rule:nonzero;stroke:none" id="path3029"/></g><g id="g3031" transform="translate(174.5576,57.022)"><path d="M 0,0 C -1.864,0 -3.43,-0.576 -4.694,-1.73 -5.96,-2.886 -6.59,-4.353 -6.59,-6.133 c 0,-1.748 0.621,-3.755 1.87,-4.894 1.246,-1.137 2.82,-1.706 4.716,-1.706 l 11.615,0 c 0.799,0 1.471,-0.267 2.017,-0.817 0.55,-0.545 0.82,-1.215 0.82,-2.008 l 0,-0.7 c 0,-0.759 -0.27,-1.41 -0.82,-1.957 -0.55,-0.548 -1.225,-0.818 -2.021,-0.818 l -8.795,0 c -0.799,0 -1.472,0.283 -2.02,0.837 -0.551,0.55 -0.821,1.229 -0.821,2.029 l 0,0.691 -6.575,0 c 0,-1.838 0.649,-3.407 1.949,-4.709 1.299,-1.299 2.85,-1.911 4.649,-1.911 l 14.438,0 c 1.864,0 3.432,0.575 4.695,1.731 1.268,1.155 1.898,2.622 1.898,4.403 0,1.747 -0.624,3.461 -1.87,4.601 -1.248,1.136 -2.82,1.705 -4.718,1.705 l -11.616,0 c -0.795,0 -1.467,0.272 -2.017,0.816 -0.546,0.547 -0.819,1.216 -0.819,2.008 l 0,0.995 c 0,0.757 0.273,1.412 0.822,1.957 0.547,0.546 1.219,0.818 2.017,0.818 l 8.784,-0.001 c 0.8,0 1.471,-0.243 2.02,-0.796 0.55,-0.551 0.821,-1.228 0.821,-2.031 l 0,-0.687 6.576,0 c 0,1.837 -0.647,3.406 -1.948,4.708 -1.301,1.298 -2.853,1.911 -4.652,1.911 L 0,0 z" style="fill:#505c66;fill-opacity:1;fill-rule:nonzero;stroke:none" id="path3033"/></g><g id="g3035" transform="translate(225.8809,65.5137)"><path d="m 0,0 -0.379,0 0,1.008 c 0.084,0.021 0.231,0.043 0.442,0.043 0.503,0 0.735,-0.215 0.735,-0.537 C 0.798,0.149 0.44,0 0,0 m 0.942,-0.258 0,0.043 c 0.4,0.129 0.712,0.407 0.712,0.836 0,0.344 -0.147,0.6 -0.355,0.752 -0.232,0.17 -0.525,0.279 -1.172,0.279 -0.567,0 -1.008,-0.067 -1.322,-0.109 l 0,-3.517 0.796,0 0,1.394 0.378,0 c 0.439,0 0.649,-0.17 0.713,-0.535 0.106,-0.428 0.167,-0.729 0.273,-0.859 l 0.836,0 c -0.062,0.13 -0.147,0.322 -0.25,0.859 -0.105,0.472 -0.275,0.75 -0.609,0.857" style="fill:#505c66;fill-opacity:1;fill-rule:nonzero;stroke:none" id="path3037"/></g><g id="g3039" transform="translate(226.0488,62.5547)"><path d="m 0,0 c -1.53,0 -2.682,1.244 -2.682,2.81 0,1.543 1.152,2.808 2.641,2.808 l 0.02,0 C 1.486,5.618 2.62,4.353 2.62,2.786 2.62,1.244 1.486,-0.023 0,0 m 0.002,6.385 -0.023,0 c -2.001,0 -3.601,-1.57 -3.601,-3.575 0,-2.006 1.6,-3.598 3.601,-3.598 2.003,0 3.579,1.592 3.579,3.598 0,2.005 -1.576,3.575 -3.556,3.575" style="fill:#505c66;fill-opacity:1;fill-rule:nonzero;stroke:none" id="path3041"/></g><g id="g3043" transform="translate(38.7764,55.0884)"><path d="m 0,0 c -5.03,0 -9.111,-4.078 -9.111,-9.111 0,-3.529 2.008,-6.587 4.943,-8.102 0.657,-0.368 1.414,-0.579 2.22,-0.579 2.372,0 4.32,1.811 4.537,4.125 -0.131,0 -2.57,0 -2.589,0 -2.516,0 -4.556,2.042 -4.556,4.556 0,2.517 2.04,4.556 4.556,4.556 2.517,0 4.556,-2.039 4.556,-4.556 l 0,-3.213 0,-4.555 c 2.517,0 4.556,2.039 4.556,4.555 l 0,3.213 C 9.112,-4.078 5.034,0 0,0" style="fill:#505c66;fill-opacity:1;fill-rule:nonzero;stroke:none" id="path3045"/></g><g id="g3047" transform="translate(157.5742,11.4658)"><path d="m 0,0 c 0.269,-0.447 0.568,-0.67 0.9,-0.67 0.6,0 1.265,0.275 1.996,0.827 C 3.627,0.709 4.262,1.486 4.801,2.488 5.34,3.489 5.609,4.322 5.609,4.986 5.609,5.617 5.51,5.934 5.313,5.934 4.299,5.934 3.159,5.191 1.896,3.708 0.633,2.225 0,0.988 0,0 m -1.129,6.795 c 0.619,3.669 1.065,5.842 1.335,6.518 0.272,0.676 0.745,1.015 1.421,1.015 0.523,0 0.785,-0.463 0.785,-1.389 0,-0.63 -0.262,-1.943 -0.785,-3.933 C 1.354,8.023 1.021,6.537 0.633,4.545 1.424,5.599 2.287,6.451 3.221,7.102 4.156,7.752 4.99,8.078 5.725,8.078 6.324,8.078 6.823,7.82 7.222,7.307 7.621,6.793 7.82,6.188 7.82,5.493 7.82,3.527 7.066,1.681 5.557,-0.049 4.047,-1.777 2.444,-2.643 0.747,-2.643 c -0.511,0 -0.985,0.139 -1.427,0.416 -0.439,0.279 -0.688,0.634 -0.746,1.069 -0.025,0.235 -0.073,0.392 -0.143,0.469 -0.071,0.076 -0.144,0.159 -0.22,0.248 -0.186,0.191 -0.277,0.459 -0.277,0.804 0,0.396 0.098,1.219 0.296,2.469 l 0.641,3.963 z" style="fill:#505c66;fill-opacity:1;fill-rule:nonzero;stroke:none" id="path3049"/></g><g id="g3051" transform="translate(169.0029,13.9541)"><path d="M 0,0 C 1.008,0.203 1.896,0.635 2.665,1.291 3.435,1.949 3.819,2.545 3.819,3.082 3.819,3.293 3.76,3.469 3.642,3.613 3.523,3.756 3.372,3.828 3.188,3.828 2.632,3.828 2.017,3.42 1.34,2.604 0.663,1.786 0.217,0.918 0,0 M 6.423,-1.694 C 6.423,-2.357 5.864,-3.15 4.747,-4.073 3.631,-4.995 2.37,-5.456 0.966,-5.456 c -1.078,0 -1.926,0.34 -2.545,1.019 -0.619,0.679 -0.929,1.626 -0.929,2.838 0,1.787 0.632,3.462 1.896,5.025 C 0.651,4.989 2,5.771 3.437,5.771 4.151,5.771 4.726,5.545 5.159,5.092 5.593,4.639 5.81,4.1 5.81,3.475 5.81,2.363 5.276,1.307 4.211,0.301 3.146,-0.704 1.78,-1.398 0.114,-1.781 c -0.191,-0.044 -0.287,-0.158 -0.287,-0.344 0,-0.307 0.137,-0.599 0.407,-0.876 0.272,-0.277 0.634,-0.417 1.087,-0.417 1.283,0 2.555,0.661 3.819,1.981 0.242,0.256 0.478,0.384 0.709,0.384 0.381,0 0.574,-0.215 0.574,-0.641" style="fill:#505c66;fill-opacity:1;fill-rule:nonzero;stroke:none" id="path3053"/></g><g id="g3055" transform="translate(187.4746,13.8389)"><path d="m 0,0 -0.162,-1.713 c -0.051,-0.549 -0.076,-1.092 -0.076,-1.627 0,-0.485 0.044,-1.047 0.134,-1.685 -0.064,-0.223 -0.224,-0.414 -0.479,-0.575 -0.255,-0.159 -0.523,-0.238 -0.804,-0.238 -0.875,0 -1.311,0.555 -1.311,1.665 0,0.491 0.136,1.665 0.411,3.523 C -2.096,0.683 -2,1.675 -2,2.326 c 0,0.038 -0.037,0.082 -0.115,0.134 -0.44,0.28 -0.66,0.548 -0.66,0.804 0,0.332 0.246,0.692 0.738,1.082 0.235,0.184 0.381,0.4 0.434,0.645 0.054,0.246 0.133,0.634 0.235,1.163 0.345,2.035 0.879,3.483 1.603,4.34 0.724,0.86 1.645,1.288 2.761,1.288 0.65,0 1.201,-0.212 1.651,-0.636 C 5.098,10.722 5.322,10.196 5.322,9.571 5.322,9.01 5.193,8.428 4.935,7.824 4.676,7.221 4.336,6.92 3.915,6.92 3.73,6.92 3.574,6.979 3.446,7.097 3.318,7.215 3.255,7.369 3.255,7.561 L 3.313,8.395 C 3.313,9.389 3.105,9.887 2.69,9.887 2.174,9.887 1.689,9.238 1.24,7.939 0.79,6.641 0.565,5.535 0.565,4.623 c 0,-0.096 0.061,-0.144 0.183,-0.144 1.32,0 2.253,0.006 2.799,0.019 C 4.093,4.512 4.365,4.301 4.365,3.867 4.365,3.445 4.035,3.135 3.375,2.934 2.715,2.732 2.02,2.632 1.293,2.632 0.802,2.588 0.482,2.546 0.336,2.508 0.183,1.563 0.07,0.73 0,0.01 L 0,0 z" style="fill:#505c66;fill-opacity:1;fill-rule:nonzero;stroke:none" id="path3057"/></g><g id="g3059" transform="translate(194.5098,13.7139)"><path d="m 0,0 0.163,0.307 c 0.773,1.55 1.604,2.809 2.493,3.775 0.891,0.967 1.76,1.451 2.609,1.451 0.65,0 1.182,-0.179 1.593,-0.537 C 7.27,4.639 7.476,4.215 7.476,3.724 7.476,3.418 7.405,3.154 7.266,2.934 7.125,2.714 6.93,2.604 6.682,2.604 6.285,2.604 5.926,2.767 5.6,3.092 5.369,3.303 5.188,3.408 5.054,3.408 4.576,3.408 3.774,2.664 2.652,1.178 1.528,-0.309 0.853,-1.98 0.623,-3.838 c -0.07,-0.535 -0.227,-0.91 -0.47,-1.125 -0.243,-0.213 -0.571,-0.32 -0.985,-0.32 -0.441,0 -0.753,0.251 -0.939,0.752 -0.184,0.5 -0.277,1.319 -0.277,2.455 0,0.466 0.013,1.094 0.038,1.885 0.026,0.747 0.1,1.66 0.221,2.738 0.031,0.28 0.055,0.5 0.066,0.66 0.058,0.625 0.123,1.055 0.197,1.287 0.073,0.233 0.244,0.451 0.512,0.656 0.268,0.204 0.565,0.306 0.89,0.306 C 0.221,5.456 0.482,5.357 0.66,5.16 0.84,4.962 0.929,4.744 0.929,4.508 0.929,4.209 0.785,3.587 0.498,2.643 0.396,2.316 0.311,1.928 0.24,1.475 L 0,0 z" style="fill:#505c66;fill-opacity:1;fill-rule:nonzero;stroke:none" id="path3061"/></g><g id="g3063" transform="translate(204.3018,13.9541)"><path d="m 0,0 c 1.008,0.203 1.896,0.635 2.665,1.291 0.77,0.658 1.154,1.254 1.154,1.791 0,0.211 -0.06,0.387 -0.177,0.531 C 3.523,3.756 3.372,3.828 3.187,3.828 2.632,3.828 2.017,3.42 1.34,2.604 0.663,1.786 0.217,0.918 0,0 M 6.423,-1.694 C 6.423,-2.357 5.864,-3.15 4.747,-4.073 3.63,-4.995 2.37,-5.456 0.966,-5.456 c -1.078,0 -1.926,0.34 -2.545,1.019 -0.619,0.679 -0.929,1.626 -0.929,2.838 0,1.787 0.632,3.462 1.896,5.025 C 0.65,4.989 2,5.771 3.436,5.771 4.15,5.771 4.726,5.545 5.159,5.092 5.593,4.639 5.81,4.1 5.81,3.475 5.81,2.363 5.276,1.307 4.212,0.301 3.146,-0.704 1.78,-1.398 0.114,-1.781 c -0.191,-0.044 -0.287,-0.158 -0.287,-0.344 0,-0.307 0.136,-0.599 0.407,-0.876 0.271,-0.277 0.634,-0.417 1.086,-0.417 1.283,0 2.556,0.661 3.82,1.981 0.242,0.256 0.478,0.384 0.708,0.384 0.383,0 0.575,-0.215 0.575,-0.641" style="fill:#505c66;fill-opacity:1;fill-rule:nonzero;stroke:none" id="path3065"/></g><g id="g3067" transform="translate(214.457,13.9541)"><path d="M 0,0 C 1.008,0.203 1.896,0.635 2.665,1.291 3.434,1.949 3.818,2.545 3.818,3.082 3.818,3.293 3.76,3.469 3.642,3.613 3.523,3.756 3.371,3.828 3.188,3.828 2.632,3.828 2.016,3.42 1.34,2.604 0.663,1.786 0.217,0.918 0,0 m 6.422,-1.694 c 0,-0.663 -0.559,-1.456 -1.675,-2.379 -1.116,-0.922 -2.377,-1.383 -3.78,-1.383 -1.078,0 -1.928,0.34 -2.547,1.019 -0.619,0.679 -0.928,1.626 -0.928,2.838 0,1.787 0.631,3.462 1.895,5.025 C 0.65,4.989 2,5.771 3.436,5.771 4.15,5.771 4.725,5.545 5.158,5.092 5.592,4.639 5.809,4.1 5.809,3.475 5.809,2.363 5.276,1.307 4.211,0.301 3.146,-0.704 1.779,-1.398 0.114,-1.781 c -0.191,-0.044 -0.287,-0.158 -0.287,-0.344 0,-0.307 0.136,-0.599 0.407,-0.876 0.272,-0.277 0.633,-0.417 1.086,-0.417 1.284,0 2.556,0.661 3.819,1.981 0.243,0.256 0.478,0.384 0.709,0.384 0.382,0 0.574,-0.215 0.574,-0.641" style="fill:#505c66;fill-opacity:1;fill-rule:nonzero;stroke:none" id="path3069"/></g></g></g></g></svg>