<?xml version="1.0" encoding="utf-8"?>
<!-- Generator: Adobe Illustrator 18.1.1, SVG Export Plug-In . SVG Version: 6.00 Build 0)  -->
<!DOCTYPE svg PUBLIC "-//W3C//DTD SVG 1.1//EN" "http://www.w3.org/Graphics/SVG/1.1/DTD/svg11.dtd">
<svg version="1.1" id="Layer_1" xmlns="http://www.w3.org/2000/svg" xmlns:xlink="http://www.w3.org/1999/xlink" x="0px" y="0px"
	 viewBox="116.9 218.7 378.2 354.7" enable-background="new 116.9 218.7 378.2 354.7" xml:space="preserve">
<path fill="#007EE5" d="M421.7,353.1l73.4-58.8l-115.9-75.7L306,279.8l-73.2-61.1l-115.9,75.7l73.4,58.8l-73.4,58.8l77.9,50.8v43.8
	l111.5,66.8l111.4-66.8v-44.1l77.4-50.5L421.7,353.1z M211.3,353.1l94.7-58.5l94.7,58.5L306,411.6L211.3,353.1z M411.7,360.4
	l63,50.4l-94.6,61.8l-63.8-53.3L411.7,360.4z M380.1,233.6l94.6,61.8l-63,50.5l-95.4-58.9L380.1,233.6z M231.9,233.6l63.8,53.3
	l-95.4,58.9l-63-50.5L231.9,233.6z M200.3,360.4l95.4,58.9l-63.8,53.3l-94.6-61.8L200.3,360.4z M405.7,499.7l-99.5,59.7l-99.5-59.7
	v-29.2l26,17l73.2-61.1l73.2,61.1l26.5-17.3L405.7,499.7L405.7,499.7z"/>
</svg>
