<?xml version="1.0" encoding="utf-8"?>
<!-- Generator: Adobe Illustrator 12.0.0, SVG Export Plug-In . SVG Version: 6.00 Build 51448)  -->
<!DOCTYPE svg PUBLIC "-//W3C//DTD SVG 1.1//EN" "http://www.w3.org/Graphics/SVG/1.1/DTD/svg11.dtd" [
	<!ENTITY ns_flows "http://ns.adobe.com/Flows/1.0/">
	<!ENTITY ns_extend "http://ns.adobe.com/Extensibility/1.0/">
	<!ENTITY ns_ai "http://ns.adobe.com/AdobeIllustrator/10.0/">
	<!ENTITY ns_graphs "http://ns.adobe.com/Graphs/1.0/">
	<!ENTITY ns_svg "http://www.w3.org/2000/svg">
	<!ENTITY ns_xlink "http://www.w3.org/1999/xlink">
]>
<svg  version="1.1" id="Layer_1" xmlns:x="&ns_extend;" xmlns:i="&ns_ai;" xmlns:graph="&ns_graphs;"
	 xmlns="&ns_svg;" xmlns:xlink="&ns_xlink;" xmlns:a="http://ns.adobe.com/AdobeSVGViewerExtensions/3.0/"
	 width="601.53" height="101.44" viewBox="0 0 601.53 101.44" style="overflow:visible;enable-background:new 0 0 601.53 101.44;"
	 xml:space="preserve">
<rect style="fill-rule:evenodd;clip-rule:evenodd;fill:#FFFFFF;" width="601.53" height="101.44"/>
<g>
	<polygon style="fill-rule:evenodd;clip-rule:evenodd;fill:#E2001A;" points="4.719,84.344 597.304,84.344 597.262,96.693 
		4.719,96.693 	"/>
	<rect x="4.804" y="4.302" style="fill-rule:evenodd;clip-rule:evenodd;fill:#009EE0;" width="592.432" height="77.178"/>
	<path d="M47.592,35.431h17.702v55.644H47.592V35.431z"/>
	<path d="M85.671,75.843c0,2.949,0.48,6.242,4.186,6.242c1.852,0,3.226-1.303,3.567-3.019h17.221
		c-2.333,8.783-12.143,12.831-20.514,12.831c-11.457,0-21.956-5.901-21.956-18.457c0-12.075,9.332-19.622,20.926-19.622
		c12.968,0,23.19,8.371,22.298,22.024H85.671z M93.974,68.295c0-2.471-1.784-4.734-4.324-4.734c-2.676,0-3.979,2.195-3.979,4.734
		H93.974z"/>
	<path d="M130.833,13.895h35.52c18.015,0,31.322,9.213,31.322,28.354c0,15.764-9.828,25.59-25.488,25.59h-14.331v23.236h-27.023
		V13.895z M157.855,48.39h2.764c4.914,0,10.236-0.819,10.236-7.063c0-6.039-5.732-6.346-10.339-6.346h-2.661V48.39z"/>
	<path d="M235.579,83.909h-0.613c-4.812,5.118-9.111,8.394-16.583,8.394c-14.74,0-22.929-14.945-22.929-28.151
		c0-13.715,8.291-28.66,23.646-28.66c6.551,0,11.977,2.354,15.867,7.678h0.613l-0.818-6.449h25.896v54.354h-25.896L235.579,83.909z
		 M228.517,71.625c5.016,0,7.062-3.992,7.062-8.188c0-4.197-2.866-7.268-7.062-7.268s-6.858,3.479-6.858,7.473
		C221.658,67.94,223.707,71.625,228.517,71.625z"/>
	<path d="M307.205,62.311c-2.763-1.638-4.708-2.968-8.085-2.968c-6.858,0-10.339,4.094-10.339,10.851v20.881h-26.409V36.721h26.409
		l-0.614,7.268h0.614c4.709-7.165,9.521-8.701,18.424-8.496V62.311z"/>
	<path d="M309.766,36.721h26.411v54.354h-26.411V36.721z M337.507,19.934c0,8.905-6.962,12.795-14.537,12.795
		c-7.574,0-14.534-3.89-14.534-12.795c0-7.882,6.243-12.693,14.534-12.693C331.263,7.24,337.507,12.052,337.507,19.934z"/>
	<path d="M343.887,69.885l1.638,1.023c3.685,2.251,9.008,5.017,13.512,5.017c1.741,0,3.892-0.921,3.892-2.97
		c0-2.967-3.175-3.07-5.324-3.377c-8.804-1.229-16.992-4.811-16.992-15.047c0-13.615,13.717-19.039,25.387-19.039
		c6.755,0,15.148,1.331,21.086,4.606l-6.45,15.047c-3.377-2.457-7.881-4.504-12.181-4.504c-1.638,0-3.788,0.511-3.788,2.456
		c0,2.662,2.867,2.866,6.551,3.48c9.418,1.535,17.097,4.811,17.097,15.764c0,14.125-14.024,19.961-26.309,19.961
		c-8.598,0-16.992-2.662-24.872-6.04L343.887,69.885z"/>
	<path d="M389.962,36.721h26.408v54.354h-26.408V36.721z M417.701,19.934c0,8.905-6.96,12.795-14.535,12.795
		c-7.574,0-14.535-3.89-14.535-12.795c0-7.882,6.246-12.693,14.535-12.693C411.458,7.24,417.701,12.052,417.701,19.934z"/>
	<path d="M445.137,68.35c0,4.401,0.716,9.314,6.245,9.314c2.763,0,4.811-1.944,5.322-4.504h25.692
		c-3.48,13.103-18.118,19.143-30.606,19.143c-17.094,0-32.755-8.803-32.755-27.535c0-18.016,13.921-29.275,31.22-29.275
		c19.346,0,34.598,12.488,33.267,32.857H445.137z M457.524,57.091c0-3.685-2.662-7.063-6.448-7.063
		c-3.993,0-5.938,3.275-5.938,7.063H457.524z"/>
	<path d="M510.039,45.421h0.614c5.117-5.937,9.007-9.929,17.504-9.929c13.511,0,18.834,10.134,18.834,22.109v33.473h-26.408V64.562
		c0-3.174,0-7.677-4.504-7.677c-4.402,0-4.402,4.503-4.402,7.677v26.512h-26.409V36.721h25.795L510.039,45.421z"/>
	<path style="fill:#FFFFFF;" d="M46.057,33.895h17.701v55.644H46.057V33.895z"/>
	<path style="fill:#FFFFFF;" d="M84.125,74.307c0,2.95,0.48,6.244,4.186,6.244c1.852,0,3.225-1.305,3.567-3.02H109.1
		c-2.333,8.783-12.145,12.83-20.514,12.83c-11.458,0-21.957-5.9-21.957-18.456c0-12.076,9.333-19.623,20.927-19.623
		c12.968,0,23.19,8.371,22.297,22.024H84.125z M92.427,66.76c0-2.471-1.785-4.734-4.323-4.734c-2.676,0-3.979,2.195-3.979,4.734
		H92.427z"/>
	<path style="fill:#FFFFFF;" d="M129.287,12.358h35.518c18.016,0,31.323,9.213,31.323,28.354c0,15.763-9.827,25.59-25.489,25.59
		h-14.33v23.235h-27.022V12.358z M156.309,46.854h2.764c4.915,0,10.236-0.819,10.236-7.063c0-6.039-5.732-6.346-10.338-6.346h-2.662
		V46.854z"/>
	<path style="fill:#FFFFFF;" d="M234.033,82.373h-0.614c-4.812,5.118-9.111,8.394-16.583,8.394
		c-14.74,0-22.929-14.944-22.929-28.149c0-13.716,8.291-28.661,23.646-28.661c6.55,0,11.976,2.354,15.866,7.678h0.614l-0.818-6.449
		h25.896v54.354h-25.896L234.033,82.373z M226.97,70.09c5.017,0,7.063-3.993,7.063-8.188c0-4.197-2.866-7.269-7.063-7.269
		c-4.196,0-6.858,3.48-6.858,7.473C220.112,66.404,222.159,70.09,226.97,70.09z"/>
	<path style="fill:#FFFFFF;" d="M305.67,60.775c-2.764-1.638-4.709-2.969-8.087-2.969c-6.858,0-10.338,4.095-10.338,10.851v20.881
		h-26.409V35.185h26.409l-0.614,7.268h0.614c4.708-7.165,9.52-8.7,18.425-8.496V60.775z"/>
	<path style="fill:#FFFFFF;" d="M308.22,35.185h26.409v54.354H308.22V35.185z M335.96,18.397c0,8.905-6.961,12.796-14.535,12.796
		c-7.576,0-14.534-3.891-14.534-12.796c0-7.882,6.241-12.692,14.534-12.692C329.716,5.705,335.96,10.516,335.96,18.397z"/>
	<path style="fill:#FFFFFF;" d="M342.341,68.35l1.637,1.023c3.688,2.252,9.009,5.016,13.513,5.016c1.739,0,3.891-0.921,3.891-2.968
		c0-2.969-3.174-3.071-5.323-3.378c-8.805-1.229-16.992-4.812-16.992-15.047c0-13.615,13.717-19.04,25.385-19.04
		c6.757,0,15.149,1.331,21.086,4.606l-6.446,15.047c-3.379-2.457-7.883-4.504-12.183-4.504c-1.638,0-3.787,0.512-3.787,2.457
		c0,2.661,2.866,2.865,6.551,3.48c9.419,1.535,17.095,4.811,17.095,15.763c0,14.126-14.024,19.961-26.307,19.961
		c-8.598,0-16.993-2.661-24.874-6.04L342.341,68.35z"/>
	<path style="fill:#FFFFFF;" d="M388.425,35.185h26.411v54.354h-26.411V35.185z M416.166,18.397c0,8.905-6.961,12.796-14.535,12.796
		c-7.575,0-14.535-3.891-14.535-12.796c0-7.882,6.245-12.692,14.535-12.692C409.921,5.705,416.166,10.516,416.166,18.397z"/>
	<path style="fill:#FFFFFF;" d="M443.591,66.814c0,4.401,0.717,9.315,6.245,9.315c2.762,0,4.811-1.944,5.321-4.504h25.693
		c-3.48,13.102-18.118,19.142-30.606,19.142c-17.095,0-32.754-8.803-32.754-27.535c0-18.015,13.92-29.275,31.221-29.275
		c19.343,0,34.596,12.488,33.265,32.858H443.591z M455.978,55.555c0-3.685-2.662-7.062-6.45-7.062c-3.991,0-5.937,3.275-5.937,7.062
		H455.978z"/>
	<path style="fill:#FFFFFF;" d="M508.491,43.886h0.617c5.116-5.937,9.005-9.93,17.501-9.93c13.515,0,18.836,10.134,18.836,22.11
		v33.472h-26.41V63.027c0-3.174,0-7.678-4.505-7.678c-4.401,0-4.401,4.504-4.401,7.678v26.511h-26.407V35.185h25.795L508.491,43.886
		z"/>
</g>
</svg>
