<?xml version="1.0" encoding="utf-8"?>
<!-- Generator: Adobe Illustrator 16.0.0, SVG Export Plug-In . SVG Version: 6.00 Build 0)  -->
<!DOCTYPE svg PUBLIC "-//W3C//DTD SVG 1.1//EN" "http://www.w3.org/Graphics/SVG/1.1/DTD/svg11.dtd">
<svg version="1.1" id="Layer_1" xmlns="http://www.w3.org/2000/svg" xmlns:xlink="http://www.w3.org/1999/xlink" x="0px" y="0px"
	 width="512px" height="512px" viewBox="0 0 512 512" enable-background="new 0 0 512 512" xml:space="preserve">
<path d="M368,239h-16v-96c0-52.938-43.063-96-96-96s-96,43.063-96,96v32h32v-32c0-35.344,28.656-64,64-64s64,28.656,64,64v96H144
	c-43.313,57.75-35.609,139,17.797,187.563c53.406,48.594,134.984,48.594,188.422,0C403.625,378,411.313,296.75,368,239z
	 M272,362.094V402c0,8.844-7.156,16-16,16s-16-7.156-16-16v-39.906c-9.391-5.594-16-15.375-16-27.094c0-17.688,14.328-32,32-32
	s32,14.313,32,32C288,346.719,281.391,356.5,272,362.094z"/>
</svg>
