<?xml version="1.0" ?><!DOCTYPE svg  PUBLIC '-//W3C//DTD SVG 1.1//EN'  'http://www.w3.org/Graphics/SVG/1.1/DTD/svg11.dtd'><svg enable-background="new 0 0 512 512" id="Layer_1" version="1.1" viewBox="0 0 512 512" xml:space="preserve" xmlns="http://www.w3.org/2000/svg" xmlns:xlink="http://www.w3.org/1999/xlink"><g><path d="M256.7,507.8C119,507.8,7.9,395.2,8.5,255.1C9.2,117.3,120.6,4.6,260.1,6.2   c136.3,1.6,246.6,113.6,245.5,253C504.4,396.5,394.2,507.7,256.7,507.8z M256.9,488.2c124.2,0.4,227.7-100.7,229-228.6   C487.3,129.1,383,26.8,259.1,25.8c-125.6-1.1-230.3,100.8-231,229.1C27.5,384.5,129.7,488.2,256.9,488.2z" fill="#A6CC05"/><path d="M425,252.8c3.6,86.8-72.5,168.6-169.1,167.6C165,419.4,90,344.1,90.1,252c0.1-92.2,75.5-167.7,168.1-167.5   C356.5,84.7,428.9,168,425,252.8z M232.4,173.3c-16.8,0.2-33.6,1.4-50.2,4c-9.8,1.5-19.6,3.5-29.1,6.7   c-8.4,2.8-12.8,10.8-10.5,18.8c2.3,8.3,10.4,13.6,18.4,11.3c29.1-8.3,58.9-10.6,89-9c37.4,2,73.5,9,106.6,27.7   c8.5,4.8,18.1,2.3,22.5-5.5c4.3-7.8,1.5-16.6-7-21.7c-9.3-5.5-19.2-9.9-29.3-13.8C307.3,178.5,270.2,173.7,232.4,173.3z    M227.2,230.9c-3.9-0.4-10.6,0.7-17.4,1.1c-16,1-31.6,3.9-46.9,8.7c-7.4,2.3-11,9.1-9,16c2,7.1,9,10.9,16.6,8.8   c11.1-3.1,22.2-5.4,33.7-6.6c31.1-3.5,61.7-0.8,91.7,8.1c14.9,4.4,28.9,10.7,42.3,18.5c5.5,3.2,12.4,1.6,16.3-3   c3.8-4.6,4-11.4,0.4-16.2c-1.8-2.3-4.2-3.7-6.7-5.1C311.6,240.2,271.8,231.9,227.2,230.9z M227.5,306.8c35.4-0.1,65,6.5,92.1,22.7   c6.1,3.6,12.1,2.4,15.3-2.8c3.3-5.4,1.4-11.4-4.8-15.2c-23-14-48.2-21.6-74.8-24.4c-28.8-3.1-57.2,0-85.3,6.2   c-6.9,1.5-10.7,6.6-9.4,12.4c1.5,6.7,6.6,9.6,14.1,8C193.4,309.5,212.3,306.5,227.5,306.8z" fill="#A5CB02"/></g></svg>