<?xml version="1.0" encoding="UTF-8"?>
<!-- Generator: Adobe Illustrator 20.1.0, SVG Export Plug-In . SVG Version: 6.00 Build 0)  -->
<svg version="1.1" id="Layer_1" xmlns="http://www.w3.org/2000/svg" xmlns:xlink="http://www.w3.org/1999/xlink" x="0px" y="0px" viewBox="0 0 200 200" style="enable-background:new 0 0 200 200;" xml:space="preserve">
<style type="text/css">
	.st0{fill:#515252;}
	.st1{fill:url(#SVGID_1_);}
	.st2{fill:#3D3D3D;}
</style>
<ellipse class="st0" cx="64.9" cy="162" rx="5.4" ry="6.3"/>
<ellipse class="st0" cx="131" cy="162" rx="5.4" ry="6.3"/>
<radialGradient id="SVGID_1_" cx="106.718" cy="50.6768" r="127.4911" gradientUnits="userSpaceOnUse">
	<stop offset="0" style="stop-color:#F9FAFB"/>
	<stop offset="0.7359" style="stop-color:#CFDADF"/>
	<stop offset="0.7359" style="stop-color:#CFDADF"/>
	<stop offset="1" style="stop-color:#F1F3F5"/>
</radialGradient>
<path class="st1" d="M178.4,109.9c-5.5,16.7-19.9,30.4-35.3,37.5c-3.8-3.1-8.7-4.8-14-4.4c-6.9,0.6-12.7,4.8-15.6,10.6  c-3.1,0.1-6.1,0.2-8.8,0.2c-1.7,0-3.4,0-4.9,0c-0.5,0-1,0-1.5,0c-0.6,0-1.3,0-1.9,0c-4.6,0-9.6-0.1-14.7-0.4  C78.2,146.6,71,142.3,63,143c-4.3,0.4-8.2,2.2-11.2,4.9c-12.9-4.2-25.1-11.4-34.3-23.5c27.2,0,21.8-30.4,25.3-48.4  c5.4-27.5,32.5-45.9,58.9-49.5c3.2-0.4,6.5-0.6,9.7-0.6C154.8,25.8,193.3,64.5,178.4,109.9z"/>
<g>
	<path class="st2" d="M190.4,78.7c-1.8-10.5-5.9-20.3-12.4-29.2c-7.3-10.1-17.2-18.5-28.8-24.3c-11.7-5.9-24.7-9-37.7-9   c-3.7,0-7.4,0.2-11,0.7c-15.2,2-30.1,8.4-42,17.8C45,45.3,36.4,58.9,33.4,74.1c-0.9,4.5-1.3,9.5-1.6,14.3   c-0.6,7.6-1.2,15.4-3.6,20.5c-1.6,3.5-4.1,5.8-10.7,5.8c-3.6,0-7,2.1-8.6,5.3c-1.6,3.3-1.3,7.2,0.9,10.1   c9.9,13.2,22.9,21.2,36.5,26c-0.8,2.4-1.1,5-0.9,7.7c0.9,10.6,10.3,18.5,20.9,17.6c9.8-0.8,17.3-8.9,17.6-18.4   c4.4,0.2,8.6,0.3,12.6,0.3c0.7,0,1.3,0,2,0c0.5,0,0.9,0,1.4,0c0.7,0,1.5,0,2.2,0c0.8,0,1.7,0,2.6,0c2.3,0,4.5,0,6.8-0.1   c0,0.2,0,0.4,0,0.6c0.9,10.6,10.3,18.5,20.9,17.6c10.6-0.9,18.5-10.3,17.6-20.9c-0.2-1.8-0.6-3.6-1.2-5.2   c7.4-3.6,14.4-8.5,20.5-14.4c8.6-8.2,14.9-18,18.2-28.1C191.3,101.4,192.3,89.9,190.4,78.7z M64.9,168.3c-3,0-5.4-2.8-5.4-6.2   c0-3.5,2.4-6.3,5.4-6.3c3,0,5.4,2.8,5.4,6.3C70.3,165.5,67.8,168.3,64.9,168.3z M131,168.3c-3,0-5.4-2.8-5.4-6.2   c0-3.5,2.4-6.3,5.4-6.3c3,0,5.4,2.8,5.4,6.3C136.5,165.5,134,168.3,131,168.3z M178.4,109.9c-5.5,16.7-19.9,30.4-35.3,37.5   c-3.8-3.1-8.7-4.8-14-4.4c-6.9,0.6-12.7,4.8-15.6,10.6c-3.1,0.1-6.1,0.2-8.8,0.2c-1.7,0-3.4,0-4.9,0c-0.5,0-1,0-1.5,0   c-0.6,0-1.3,0-1.9,0c-4.6,0-9.6-0.1-14.7-0.4C78.2,146.6,71,142.3,63,143c-4.3,0.4-8.2,2.2-11.2,4.9c-12.9-4.2-25.1-11.4-34.3-23.5   c27.2,0,21.8-30.4,25.3-48.4c5.4-27.5,32.5-45.9,58.9-49.5c3.2-0.4,6.5-0.6,9.7-0.6C154.8,25.8,193.3,64.5,178.4,109.9z"/>
	<g id="g4995">
		<g id="g5001" transform="translate(391.9561,201.02831)">
			<path id="path5003" class="st2" d="M-296.7-127.3c0,5.1-4.1,9.2-9.2,9.2s-9.2-4.1-9.2-9.2c0-5.1,4.1-9.2,9.2-9.2     S-296.7-132.4-296.7-127.3"/>
		</g>
	</g>
	<g id="g5007">
		<g id="g5013" transform="translate(432.22659,202.3452)">
			<path id="path5015" class="st2" d="M-292.9-130.1c0,5.1-4.1,9.2-9.2,9.2c-5.1,0-9.2-4.1-9.2-9.2c0-5.1,4.1-9.2,9.2-9.2     C-297-139.3-292.9-135.2-292.9-130.1"/>
		</g>
	</g>
	<g id="g5019">
		<g id="g5025" transform="translate(403.78371,155.8149)">
			<path id="path5027" class="st2" d="M-295.6-32.6c-7.9,0-15.5-2.6-21.6-7.3c-6.2-4.8-10.2-11.4-11-18.1c-0.3-2.6,1.6-5,4.2-5.3     c2.6-0.3,5,1.6,5.3,4.2c1.2,10.2,13.4,17.1,23.7,16.8c13.1-0.3,21.8-8.2,23.6-15.8c0.6-2.6,3.2-4.2,5.8-3.6     c2.6,0.6,4.2,3.2,3.6,5.8c-1.5,6.2-5.4,11.9-11.2,16.1c-6,4.4-13.4,6.8-21.5,7C-295-32.6-295.3-32.6-295.6-32.6"/>
		</g>
	</g>
</g>
</svg>